<svg width="374" height="103" viewBox="0 0 374 103" fill="none" xmlns="http://www.w3.org/2000/svg">
<path d="M83.6029 45.442C87.0195 45.442 89.9409 46.2074 92.3672 47.7383C94.843 49.2691 96.7246 51.4379 98.012 54.2444C99.3489 57 100.017 60.2403 100.017 63.9654V68.0222H72.7589C72.8579 72.6658 73.9968 76.2123 76.1755 78.6617C78.4037 81.0601 81.4984 82.2593 85.4597 82.2593C87.985 82.2593 90.2132 82.0296 92.1443 81.5704C94.125 81.0601 96.1551 80.3457 98.2348 79.4272V85.321C96.2046 86.2395 94.1993 86.9029 92.2186 87.3111C90.238 87.7704 87.886 88 85.1626 88C81.3994 88 78.0571 87.2091 75.1357 85.6272C72.2638 84.0453 70.0108 81.6979 68.3768 78.5852C66.7923 75.4214 66 71.5687 66 67.0272C66 62.5366 66.718 58.6839 68.1539 55.4691C69.6394 52.2543 71.6943 49.7794 74.3187 48.0444C76.9925 46.3095 80.0872 45.442 83.6029 45.442ZM83.5286 50.9531C80.4091 50.9531 77.9333 51.9992 76.1012 54.0914C74.3187 56.1325 73.2541 58.9901 72.9075 62.6642H93.1842C93.1842 60.3169 92.8376 58.2757 92.1443 56.5407C91.4511 54.8058 90.3865 53.4535 88.9506 52.4839C87.5641 51.4634 85.7568 50.9531 83.5286 50.9531Z" fill="#131414"/>
<path d="M128.721 45.442C129.463 45.442 130.256 45.493 131.097 45.5951C131.989 45.6461 132.756 45.7481 133.4 45.9012L132.583 52.1012C131.939 51.9481 131.221 51.8206 130.429 51.7185C129.686 51.6165 128.968 51.5654 128.275 51.5654C126.74 51.5654 125.279 51.8971 123.893 52.5605C122.506 53.2239 121.269 54.1679 120.179 55.3926C119.09 56.5663 118.223 57.9951 117.58 59.679C116.985 61.363 116.688 63.251 116.688 65.3432V87.2346H110.152V46.2074H115.5L116.243 53.7086H116.54C117.382 52.1778 118.397 50.8 119.585 49.5753C120.773 48.2996 122.135 47.3045 123.67 46.5901C125.205 45.8247 126.889 45.442 128.721 45.442Z" fill="#131414"/>
<path d="M147.37 43.2222C147.37 44.9572 147.32 46.5901 147.221 48.121C147.172 49.6008 147.097 50.7745 146.998 51.642H147.37C148.509 49.907 150.068 48.4527 152.049 47.279C154.03 46.1053 156.58 45.5185 159.699 45.5185C164.651 45.5185 168.612 47.3045 171.583 50.8765C174.603 54.3975 176.114 59.679 176.114 66.721C176.114 71.4156 175.42 75.3449 174.034 78.5086C172.697 81.6724 170.791 84.0453 168.315 85.6272C165.839 87.2091 162.967 88 159.699 88C156.58 88 154.03 87.4132 152.049 86.2395C150.068 85.0658 148.509 83.6626 147.37 82.0296H146.85L145.513 87.2346H140.834V29.0617H147.37V43.2222ZM158.585 51.1062C155.763 51.1062 153.534 51.6675 151.9 52.7901C150.266 53.8617 149.103 55.5457 148.41 57.842C147.716 60.0872 147.37 62.9704 147.37 66.4914V66.7975C147.37 71.8494 148.162 75.7276 149.747 78.4321C151.381 81.0856 154.376 82.4123 158.734 82.4123C162.299 82.4123 164.948 81.0601 166.681 78.3556C168.464 75.651 169.355 71.7473 169.355 66.6444C169.355 61.4905 168.464 57.6123 166.681 55.0099C164.948 52.4074 162.249 51.1062 158.585 51.1062Z" fill="#131414"/>
<path d="M201.607 45.5185C206.46 45.5185 210.049 46.6156 212.377 48.8099C214.704 51.0041 215.868 54.4996 215.868 59.2963V87.2346H211.114L209.851 81.4173H209.554C208.415 82.8971 207.227 84.1473 205.989 85.1679C204.801 86.1374 203.414 86.8518 201.83 87.3111C200.295 87.7704 198.413 88 196.185 88C193.808 88 191.654 87.5663 189.723 86.6988C187.842 85.8313 186.356 84.5045 185.267 82.7185C184.177 80.8815 183.633 78.5852 183.633 75.8296C183.633 71.7473 185.192 68.6091 188.312 66.4148C191.431 64.1695 196.235 62.9449 202.721 62.7407L209.48 62.5111V60.0617C209.48 56.6428 208.762 54.27 207.326 52.9432C205.89 51.6165 203.86 50.9531 201.236 50.9531C199.156 50.9531 197.175 51.2848 195.294 51.9481C193.412 52.5605 191.654 53.2749 190.02 54.0914L188.015 49.0395C189.748 48.07 191.803 47.2535 194.18 46.5901C196.556 45.8757 199.032 45.5185 201.607 45.5185ZM203.538 67.4099C198.587 67.614 195.145 68.4304 193.214 69.8593C191.332 71.2881 190.392 73.3037 190.392 75.9062C190.392 78.2025 191.06 79.8864 192.397 80.958C193.783 82.0296 195.541 82.5654 197.67 82.5654C201.038 82.5654 203.835 81.6214 206.063 79.7333C208.292 77.7942 209.406 74.8346 209.406 70.8543V67.1802L203.538 67.4099Z" fill="#131414"/>
<path d="M246.509 66.8741L241.607 76.9778L236.556 87.2346H225.564L255.273 26L275.104 66.8741H263.963L255.273 48.8864L246.509 66.8741ZM280.006 77.0543L284.983 87.2346H273.916L269.014 77.0543H280.006Z" fill="#131414"/>
<path d="M309.078 88C304.127 88 300.165 86.2395 297.194 82.7185C294.223 79.1465 292.738 73.8395 292.738 66.7975C292.738 59.7556 294.223 54.4486 297.194 50.8765C300.215 47.2535 304.201 45.442 309.152 45.442C311.232 45.442 313.039 45.7226 314.574 46.2839C316.109 46.7942 317.446 47.5086 318.585 48.4272C319.724 49.3457 320.69 50.3663 321.482 51.4889H321.927C321.878 50.8255 321.779 49.856 321.63 48.5802C321.531 47.2535 321.482 46.2074 321.482 45.442V29.0617H328.018V87.2346H322.745L321.779 81.7235H321.482C320.69 82.8971 319.724 83.9687 318.585 84.9383C317.446 85.8568 316.085 86.5967 314.5 87.158C312.965 87.7193 311.158 88 309.078 88ZM310.118 82.4123C314.327 82.4123 317.273 81.2387 318.957 78.8914C320.69 76.493 321.556 72.8955 321.556 68.0988V66.8741C321.556 61.7712 320.739 57.8675 319.105 55.163C317.471 52.4074 314.451 51.0296 310.044 51.0296C306.528 51.0296 303.879 52.4839 302.096 55.3926C300.363 58.2502 299.497 62.1029 299.497 66.9506C299.497 71.8494 300.363 75.651 302.096 78.3556C303.879 81.0601 306.553 82.4123 310.118 82.4123Z" fill="#131414"/>
<path d="M355.739 45.5185C360.592 45.5185 364.182 46.6156 366.509 48.8099C368.836 51.0041 370 54.4996 370 59.2963V87.2346H365.247L363.984 81.4173H363.687C362.548 82.8971 361.36 84.1473 360.122 85.1679C358.933 86.1374 357.547 86.8518 355.962 87.3111C354.427 87.7704 352.546 88 350.317 88C347.941 88 345.787 87.5663 343.856 86.6988C341.974 85.8313 340.489 84.5045 339.399 82.7185C338.31 80.8815 337.765 78.5852 337.765 75.8296C337.765 71.7473 339.325 68.6091 342.444 66.4148C345.564 64.1695 350.367 62.9449 356.854 62.7407L363.612 62.5111V60.0617C363.612 56.6428 362.894 54.27 361.459 52.9432C360.023 51.6165 357.992 50.9531 355.368 50.9531C353.288 50.9531 351.308 51.2848 349.426 51.9481C347.545 52.5605 345.787 53.2749 344.153 54.0914L342.147 49.0395C343.88 48.07 345.935 47.2535 348.312 46.5901C350.689 45.8757 353.165 45.5185 355.739 45.5185ZM357.671 67.4099C352.719 67.614 349.278 68.4304 347.347 69.8593C345.465 71.2881 344.524 73.3037 344.524 75.9062C344.524 78.2025 345.193 79.8864 346.529 80.958C347.916 82.0296 349.674 82.5654 351.803 82.5654C355.17 82.5654 357.968 81.6214 360.196 79.7333C362.424 77.7942 363.538 74.8346 363.538 70.8543V67.1802L357.671 67.4099Z" fill="#131414"/>
<g clip-path="url(#clip0_117_77)">
<path d="M12.5166 29.6923H22.0411C22.0411 26.1875 24.3032 19.1779 33.3514 19.1779C42.3997 19.1779 44.6617 26.1875 44.6617 29.6923H54.1862C53.5909 23.4615 48.5906 11 33.3514 11C18.1122 11 13.1119 23.4615 12.5166 29.6923Z" fill="url(#paint0_linear_117_77)"/>
<path d="M5.22558 28.1348H62V63.9617C57.6594 57.3848 44.7071 44.854 27.6226 47.3463C27.2698 47.3978 26.9225 47.4421 26.5806 47.4795V52.5386C48.2488 52.5386 59.2219 68.1155 62 75.904V92.0001H4.18315V58.2501C9.60039 71.5425 30.7479 73.3078 39.6026 73.8271V67.5963C4.18339 65.9348 1.57949 40.5963 5.22558 28.1348Z" fill="url(#paint1_linear_117_77)"/>
</g>
<path d="M246.15 61.7175L241.2 71.7825L236.1 82H225L255 21L275.025 61.7175H263.775L255 43.7987L246.15 61.7175ZM279.975 71.8587L285 82H273.825L268.875 71.8587H279.975Z" fill="url(#paint2_linear_117_77)"/>
<defs>
<linearGradient id="paint0_linear_117_77" x1="33.3514" y1="11" x2="33.3514" y2="26.5769" gradientUnits="userSpaceOnUse">
<stop stop-color="#FFE7E7"/>
<stop offset="1" stop-color="#61C8EF"/>
</linearGradient>
<linearGradient id="paint1_linear_117_77" x1="33.3519" y1="14.6348" x2="33.3519" y2="108.096" gradientUnits="userSpaceOnUse">
<stop stop-color="#76F1FF"/>
<stop offset="1" stop-color="#0A1DAF"/>
</linearGradient>
<linearGradient id="paint2_linear_117_77" x1="255.364" y1="8.10569" x2="255.364" y2="97.374" gradientUnits="userSpaceOnUse">
<stop stop-color="#76F1FF"/>
<stop offset="1" stop-color="#0A1DAF"/>
</linearGradient>
<clipPath id="clip0_117_77">
<rect width="58" height="81" fill="white" transform="translate(4 11)"/>
</clipPath>
</defs>
</svg>
